<svg xmlns="http://www.w3.org/2000/svg" xmlns:xlink="http://www.w3.org/1999/xlink" width="793" zoomAndPan="magnify" viewBox="0 0 594.95996 842.24997" height="1122" preserveAspectRatio="xMidYMid meet" version="1.0"><defs><clipPath id="2e2fe0e812"><path d="M 151 244 L 446 244 L 446 464 L 151 464 Z M 151 244 " clip-rule="nonzero"/></clipPath><clipPath id="ad0300203b"><path d="M 259.191406 167.003906 L 473.769531 348.066406 L 335.199219 512.292969 L 120.617188 331.230469 Z M 259.191406 167.003906 " clip-rule="nonzero"/></clipPath><clipPath id="95abcf5a5e"><path d="M 259.191406 167.003906 L 473.769531 348.066406 L 335.199219 512.292969 L 120.617188 331.230469 Z M 259.191406 167.003906 " clip-rule="nonzero"/></clipPath><clipPath id="e955be9924"><path d="M 259.191406 167.003906 L 473.769531 348.066406 L 335.199219 512.292969 L 120.617188 331.230469 Z M 259.191406 167.003906 " clip-rule="nonzero"/></clipPath></defs><g clip-path="url(#2e2fe0e812)"><g clip-path="url(#ad0300203b)"><g clip-path="url(#95abcf5a5e)"><g clip-path="url(#e955be9924)"><path fill="#9885b2" d="M 408.367188 307.851562 C 427.714844 310.125 443.519531 322.578125 444.925781 345.195312 C 446.003906 359.488281 441.632812 376.09375 435.414062 388.875 C 431.25 397.417969 426.21875 404.421875 420.929688 407.640625 C 413.558594 412.105469 405.867188 409.535156 397.429688 410.410156 C 386.441406 411.449219 374.710938 417.46875 364.53125 426.457031 C 355.570312 434.382812 347.792969 444.570312 338.6875 452.28125 C 329.511719 460.0625 318.496094 465.0625 306.5625 463.09375 C 295.054688 461.148438 283.800781 453.757812 275.851562 445.574219 C 267.960938 437.316406 263.273438 427.867188 259.628906 418.472656 C 255.640625 408.21875 251.847656 397.1875 239.519531 391.550781 C 233.257812 388.671875 225.480469 387.515625 217.960938 386.429688 C 198.84375 383.667969 179.527344 380.976562 167.683594 368.699219 C 149.398438 351.664062 145.511719 317.625 160.996094 293.144531 C 163.21875 289.617188 168.0625 274.972656 177.886719 278.296875 C 180.417969 279.039062 183.058594 279.070312 185.605469 280.597656 C 192.042969 284.425781 199.175781 288.019531 206.988281 291.277344 C 217.230469 295.699219 229.867188 299.023438 241.84375 294.578125 C 260.355469 287.671875 268.171875 267.484375 283.46875 255.511719 C 296.578125 245.261719 317.683594 241.445312 333.976562 247.371094 C 345.050781 251.507812 351.824219 259.703125 354.195312 268.503906 C 356.089844 275.472656 355.53125 282.800781 354.601562 290.132812 C 353.941406 295.308594 348.648438 306.925781 354.183594 310.621094 C 359.6875 314.285156 373.230469 309.46875 379.761719 308.582031 C 389.332031 307.261719 399.589844 306.21875 408.367188 307.851562 Z M 408.367188 307.851562 " fill-opacity="1" fill-rule="nonzero"/></g></g></g></g></svg>