<svg xmlns="http://www.w3.org/2000/svg" xmlns:xlink="http://www.w3.org/1999/xlink" width="793" zoomAndPan="magnify" viewBox="0 0 594.95996 842.24997" height="1122" preserveAspectRatio="xMidYMid meet" version="1.0"><defs><clipPath id="fef8a9d1f2"><path d="M 203.191406 517.308594 L 440.53125 517.308594 L 440.53125 561.484375 L 203.191406 561.484375 Z M 203.191406 517.308594 " clip-rule="nonzero"/></clipPath></defs><g clip-path="url(#fef8a9d1f2)"><path fill="#cce1f2" d="M 283.75 520.5 C 285 520.578125 286.242188 520.617188 287.480469 520.414062 C 287.910156 520.339844 288.351562 520.359375 288.792969 520.351562 C 298.257812 520.097656 307.726562 519.980469 317.195312 519.949219 C 321.726562 519.929688 326.253906 519.65625 330.773438 519.214844 C 334.074219 518.894531 337.390625 518.773438 340.691406 518.488281 C 347.3125 517.914062 353.949219 517.753906 360.582031 518.023438 C 364.570312 518.183594 368.542969 518.703125 372.5 519.257812 C 377.898438 520.019531 383.238281 521.15625 388.730469 521.269531 C 394.039062 521.378906 399.230469 520.777344 404.390625 519.597656 C 409.914062 518.339844 415.492188 517.375 421.191406 517.699219 C 426.285156 517.988281 431.109375 519.269531 435.410156 522.117188 C 437.789062 523.695312 439.3125 525.898438 439.90625 528.738281 C 440.542969 531.78125 439.691406 534.359375 437.546875 536.523438 C 435.441406 538.644531 433.066406 540.449219 430.699219 542.265625 C 425.585938 546.195312 419.679688 548.007812 413.402344 548.859375 C 408.851562 549.476562 404.273438 549.714844 399.691406 549.707031 C 392.027344 549.699219 384.382812 549.925781 376.746094 550.539062 C 370.167969 551.066406 363.6875 552.035156 357.320312 553.78125 C 352.761719 555.03125 348.195312 556.257812 343.554688 557.195312 C 338.828125 558.152344 334.074219 558.941406 329.277344 559.460938 C 325.164062 559.90625 321.054688 560.417969 316.933594 560.824219 C 312.265625 561.285156 307.578125 561.386719 302.898438 561.097656 C 297.234375 560.75 291.917969 559.023438 286.714844 556.828125 C 280.722656 554.304688 274.527344 552.40625 268.167969 551.066406 C 265.734375 550.550781 263.261719 550.265625 260.765625 550.277344 C 257.640625 550.285156 254.511719 550.230469 251.394531 550.363281 C 247.253906 550.53125 243.125 550.863281 238.992188 551.109375 C 238.066406 551.164062 237.136719 551.144531 236.210938 551.183594 C 232.21875 551.367188 228.222656 551.59375 224.230469 551.75 C 220.617188 551.890625 217.011719 551.800781 213.410156 551.449219 C 212.195312 551.328125 211 551.09375 209.824219 550.75 C 205.484375 549.492188 203.191406 545.605469 204.117188 540.894531 C 204.597656 538.476562 205.769531 536.40625 207.445312 534.621094 C 211.179688 530.652344 215.679688 527.882812 220.839844 526.234375 C 226.523438 524.421875 232.375 523.445312 238.320312 522.898438 C 243.375 522.433594 248.445312 522.332031 253.503906 522.027344 C 255.980469 521.875 258.449219 521.546875 260.921875 521.3125 C 262.523438 521.164062 264.125 521.03125 265.730469 520.921875 C 270.253906 520.613281 278.203125 520.4375 283.515625 520.4375 " fill-opacity="1" fill-rule="nonzero"/></g></svg>