<svg xmlns="http://www.w3.org/2000/svg" xmlns:xlink="http://www.w3.org/1999/xlink" width="793" zoomAndPan="magnify" viewBox="0 0 594.95996 842.24997" height="1122" preserveAspectRatio="xMidYMid meet" version="1.0"><defs><clipPath id="5ee27ba761"><path d="M 185 387 L 399 387 L 399 612 L 185 612 Z M 185 387 " clip-rule="nonzero"/></clipPath><clipPath id="546b5bd220"><path d="M 152.351562 436.6875 L 341.425781 355.183594 L 424.410156 547.699219 L 235.335938 629.199219 Z M 152.351562 436.6875 " clip-rule="nonzero"/></clipPath><clipPath id="66a672875f"><path d="M 152.351562 436.6875 L 341.425781 355.183594 L 424.410156 547.699219 L 235.335938 629.199219 Z M 152.351562 436.6875 " clip-rule="nonzero"/></clipPath><clipPath id="af74d992d9"><path d="M 152.351562 436.6875 L 341.425781 355.183594 L 424.410156 547.699219 L 235.335938 629.199219 Z M 152.351562 436.6875 " clip-rule="nonzero"/></clipPath></defs><g clip-path="url(#5ee27ba761)"><g clip-path="url(#546b5bd220)"><g clip-path="url(#66a672875f)"><g clip-path="url(#af74d992d9)"><path fill="#dab7a0" d="M 260.769531 390.265625 C 266.566406 387.453125 272.554688 386.855469 278.730469 388.46875 C 284.675781 390.414062 289.773438 393.6875 294.03125 398.28125 C 298.160156 402.964844 302.273438 407.65625 306.375 412.363281 C 310.820312 417.300781 315.417969 422.082031 320.179688 426.710938 C 329.210938 435.160156 339.050781 442.453125 349.691406 448.59375 C 355.445312 451.90625 361.351562 454.933594 367.410156 457.675781 C 369.707031 458.832031 372 459.992188 374.289062 461.148438 C 376.046875 462.132812 377.796875 463.136719 379.53125 464.164062 C 383.382812 466.554688 386.816406 469.453125 389.828125 472.871094 C 394.871094 479.203125 397.59375 486.492188 398 494.742188 C 398.175781 500.664062 397.617188 506.507812 396.324219 512.273438 C 394.199219 520.839844 391.292969 529.171875 387.601562 537.269531 C 383.585938 545.789062 378.1875 553.363281 371.402344 559.988281 C 367.621094 563.402344 363.367188 566.050781 358.648438 567.945312 C 355.464844 569.222656 352.15625 570.183594 348.734375 570.832031 C 345.707031 571.382812 342.660156 571.804688 339.59375 572.089844 C 335.371094 572.496094 331.148438 572.886719 326.921875 573.261719 C 322.164062 573.71875 317.519531 574.695312 312.988281 576.183594 C 312.871094 576.261719 312.757812 576.34375 312.640625 576.421875 C 308.230469 577.742188 304.589844 580.222656 301.726562 583.851562 C 300.828125 585.03125 299.972656 586.234375 299.160156 587.464844 C 296.964844 591.34375 294.667969 595.167969 292.269531 598.929688 C 290.441406 601.472656 288.367188 603.796875 286.042969 605.902344 C 282.523438 608.683594 278.558594 610.570312 274.140625 611.570312 C 267.242188 612.753906 261.035156 611.210938 255.519531 606.945312 C 252.671875 604.648438 250.453125 601.847656 248.855469 598.550781 C 247.550781 595.5625 246.222656 592.589844 244.871094 589.628906 C 244.277344 588.253906 243.617188 586.898438 242.894531 585.5625 C 240.71875 582.5625 238.378906 579.695312 235.875 576.964844 C 226.980469 568.214844 218.28125 559.269531 209.78125 550.121094 C 207.019531 547.101562 204.296875 544.042969 201.613281 540.945312 C 198.582031 537.324219 195.804688 533.511719 193.277344 529.519531 C 190.296875 524.671875 188.105469 519.445312 186.703125 513.84375 C 184.101562 502.058594 187.101562 491.929688 195.699219 483.453125 C 197.078125 482.121094 198.492188 480.828125 199.941406 479.570312 C 203.324219 476.832031 206.726562 474.113281 210.140625 471.417969 C 216.882812 465.957031 221.910156 459.257812 225.234375 451.320312 C 226.265625 448.835938 227.226562 446.320312 228.121094 443.773438 C 229.644531 438.800781 231.246094 433.847656 232.921875 428.914062 C 235.867188 421.058594 239.535156 413.589844 243.929688 406.511719 C 246.644531 402.414062 249.789062 398.65625 253.367188 395.246094 C 255.609375 393.234375 258.078125 391.574219 260.769531 390.265625 Z M 263.996094 395.046875 C 270.15625 392.832031 276.085938 393.316406 281.789062 396.496094 C 285.054688 398.28125 287.972656 400.542969 290.535156 403.277344 C 295.0625 408.449219 299.667969 413.589844 304.351562 418.691406 C 309.824219 424.648438 315.578125 430.304688 321.617188 435.660156 C 328.792969 441.792969 336.414062 447.269531 344.476562 452.09375 C 347.300781 453.730469 350.144531 455.339844 353.007812 456.910156 C 359.136719 459.980469 365.25 463.097656 371.339844 466.265625 C 374.148438 467.785156 376.839844 469.484375 379.410156 471.371094 C 387.53125 477.710938 391.867188 486.035156 392.417969 496.34375 C 392.632812 503.046875 391.847656 509.613281 390.0625 516.046875 C 388.027344 523.128906 385.414062 529.992188 382.222656 536.636719 C 378.570312 543.933594 373.785156 550.433594 367.863281 556.148438 C 365.605469 558.195312 363.113281 559.894531 360.382812 561.253906 C 355.671875 563.710938 350.691406 565.324219 345.433594 566.085938 C 338.636719 566.90625 331.824219 567.609375 325.003906 568.1875 C 318.710938 568.828125 312.675781 570.429688 306.90625 572.992188 C 303.324219 574.785156 300.289062 577.242188 297.800781 580.359375 C 296.707031 581.742188 295.675781 583.171875 294.714844 584.640625 C 292.519531 588.523438 290.222656 592.34375 287.824219 596.105469 C 286.003906 598.695312 283.847656 600.96875 281.347656 602.917969 C 278.9375 604.527344 276.328125 605.679688 273.519531 606.382812 C 268.875 607.296875 264.554688 606.523438 260.550781 604.0625 C 258.199219 602.625 256.277344 600.742188 254.796875 598.40625 C 254.21875 597.476562 253.675781 596.535156 253.171875 595.574219 C 252.175781 593.253906 251.234375 591.003906 250.355469 588.828125 C 249.183594 586.308594 247.917969 583.828125 246.566406 581.386719 C 245.363281 580.066406 244.25 578.667969 243.230469 577.191406 C 239.804688 573.382812 236.207031 569.75 232.4375 566.289062 C 225.082031 558.804688 217.8125 551.238281 210.636719 543.585938 C 207.191406 539.808594 203.914062 535.882812 200.8125 531.8125 C 197.015625 526.796875 194.164062 521.289062 192.257812 515.292969 C 190.824219 510.523438 190.539062 505.699219 191.398438 500.820312 C 192.65625 495.835938 195.113281 491.515625 198.761719 487.855469 C 200.859375 485.730469 203.074219 483.734375 205.410156 481.859375 C 208.597656 479.378906 211.753906 476.855469 214.878906 474.292969 C 220.847656 469.183594 225.484375 463.097656 228.792969 456.042969 C 230.363281 452.265625 231.835938 448.425781 233.199219 444.53125 C 234.339844 440.777344 235.5 437.027344 236.6875 433.285156 C 239.363281 425.53125 242.804688 418.160156 247.011719 411.171875 C 249.492188 407.285156 252.367188 403.695312 255.632812 400.394531 C 258.132812 398.113281 260.917969 396.328125 263.996094 395.046875 Z M 263.996094 395.046875 " fill-opacity="0.9804" fill-rule="evenodd"/></g></g></g></g></svg>