<svg xmlns="http://www.w3.org/2000/svg" xmlns:xlink="http://www.w3.org/1999/xlink" width="793" zoomAndPan="magnify" viewBox="0 0 594.95996 842.24997" height="1122" preserveAspectRatio="xMidYMid meet" version="1.0"><defs><filter x="0%" y="0%" width="100%" height="100%" id="92d558b2ca"><feColorMatrix values="0 0 0 0 1 0 0 0 0 1 0 0 0 0 1 0 0 0 1 0" color-interpolation-filters="sRGB"/></filter><mask id="ff9f7f0630"><g filter="url(#92d558b2ca)"><rect x="-59.495996" width="713.951952" fill="#000000" y="-84.224997" height="1010.699964" fill-opacity="0.2471"/></g></mask><clipPath id="2519a7095b"><path d="M 47 58 L 270 58 L 270 254 L 47 254 Z M 47 58 " clip-rule="nonzero"/></clipPath><clipPath id="1f66e89bad"><path d="M 97.925781 1.027344 L 303.363281 115.324219 L 206.539062 289.355469 L 1.101562 175.058594 Z M 97.925781 1.027344 " clip-rule="nonzero"/></clipPath><clipPath id="ffd91f6c84"><path d="M 97.925781 1.027344 L 303.363281 115.324219 L 206.539062 289.355469 L 1.101562 175.058594 Z M 97.925781 1.027344 " clip-rule="nonzero"/></clipPath><clipPath id="3c97fcde27"><path d="M 97.925781 1.027344 L 303.363281 115.324219 L 206.539062 289.355469 L 1.101562 175.058594 Z M 97.925781 1.027344 " clip-rule="nonzero"/></clipPath><clipPath id="d4ff065ad3"><rect x="0" width="305" y="0" height="291"/></clipPath></defs><g mask="url(#ff9f7f0630)"><g transform="matrix(1, 0, 0, 1, 137, 208)"><g clip-path="url(#d4ff065ad3)"><g clip-path="url(#2519a7095b)"><g clip-path="url(#1f66e89bad)"><g clip-path="url(#ffd91f6c84)"><g clip-path="url(#3c97fcde27)"><path fill="#ffaaaa" d="M 86.992188 74.433594 C 89.5 74.589844 91.984375 73.695312 94.09375 72.332031 C 96.199219 70.972656 97.976562 69.160156 99.675781 67.3125 C 101.375 65.46875 103.027344 63.558594 104.949219 61.949219 C 106.871094 60.335938 109.105469 59.011719 111.570312 58.546875 C 113.75 58.132812 116.027344 58.410156 118.117188 59.148438 C 120.207031 59.886719 122.121094 61.066406 123.851562 62.453125 C 128.292969 66.011719 131.519531 70.855469 135.722656 74.691406 C 137.824219 76.609375 140.195312 78.28125 142.863281 79.265625 C 145.53125 80.25 148.523438 80.507812 151.234375 79.636719 C 154.324219 78.640625 156.777344 76.296875 158.925781 73.859375 C 161.074219 71.421875 163.066406 68.789062 165.707031 66.898438 C 169.664062 64.070312 174.734375 63.1875 179.59375 63.386719 C 184.453125 63.582031 189.210938 64.773438 193.976562 65.738281 C 207.078125 68.386719 220.863281 69.488281 232.535156 76.003906 C 238.367188 79.261719 243.554688 83.914062 246.664062 89.832031 C 248.21875 92.789062 249.234375 96.039062 249.53125 99.367188 C 249.832031 102.695312 249.398438 106.097656 248.171875 109.207031 C 246.804688 112.660156 244.515625 115.660156 242.714844 118.910156 C 241.8125 120.535156 241.03125 122.238281 240.570312 124.039062 C 240.109375 125.839844 239.976562 127.746094 240.378906 129.558594 C 240.746094 131.203125 241.539062 132.738281 242.570312 134.070312 C 243.601562 135.40625 244.863281 136.542969 246.222656 137.542969 C 248.9375 139.542969 252.011719 140.992188 254.851562 142.808594 C 262.1875 147.5 267.972656 154.96875 269.5 163.539062 C 270.261719 167.828125 269.945312 172.320312 268.441406 176.40625 C 266.933594 180.488281 264.222656 184.144531 260.65625 186.644531 C 256.65625 189.445312 251.8125 190.699219 247.132812 192.085938 C 242.449219 193.472656 237.652344 195.136719 234.132812 198.523438 C 231.480469 201.074219 229.742188 204.4375 228.457031 207.886719 C 227.171875 211.332031 226.292969 214.921875 225.074219 218.394531 C 223.855469 221.867188 222.257812 225.28125 219.757812 227.980469 C 218.503906 229.332031 217.035156 230.488281 215.386719 231.304688 C 213.734375 232.117188 211.902344 232.582031 210.058594 232.554688 C 207.949219 232.523438 205.882812 231.855469 203.992188 230.914062 C 202.097656 229.976562 200.355469 228.769531 198.601562 227.589844 C 196.847656 226.414062 195.066406 225.253906 193.125 224.417969 C 191.183594 223.582031 189.058594 223.078125 186.957031 223.273438 C 184.484375 223.507812 182.167969 224.703125 180.308594 226.34375 C 178.453125 227.988281 177.019531 230.066406 175.828125 232.242188 C 173.445312 236.597656 171.933594 241.464844 168.878906 245.375 C 165.636719 249.53125 160.78125 252.324219 155.613281 253.347656 C 150.441406 254.371094 144.992188 253.671875 140.113281 251.675781 C 135.238281 249.679688 130.921875 246.417969 127.421875 242.480469 C 123.917969 238.542969 121.210938 233.9375 119.160156 229.085938 C 114.769531 218.695312 113.335938 207.164062 108.210938 197.117188 C 105.648438 192.09375 102.113281 187.457031 97.421875 184.328125 C 92.726562 181.203125 86.789062 179.71875 81.3125 181.066406 C 76.113281 182.34375 71.851562 185.941406 67.144531 188.496094 C 64.792969 189.773438 62.265625 190.808594 59.605469 191.113281 C 56.945312 191.421875 54.132812 190.941406 51.9375 189.410156 C 50.363281 188.3125 49.164062 186.714844 48.4375 184.9375 C 47.714844 183.160156 47.449219 181.214844 47.546875 179.296875 C 47.75 175.464844 49.367188 171.847656 51.304688 168.535156 C 53.246094 165.226562 55.535156 162.117188 57.277344 158.699219 C 59.023438 155.285156 60.222656 151.445312 59.757812 147.636719 C 59.433594 144.984375 58.324219 142.484375 56.945312 140.195312 C 55.570312 137.90625 53.921875 135.792969 52.402344 133.597656 C 50.886719 131.398438 49.480469 129.085938 48.667969 126.539062 C 47.855469 123.996094 47.667969 121.183594 48.570312 118.671875 C 49.179688 116.964844 50.269531 115.453125 51.609375 114.234375 C 52.949219 113.011719 54.53125 112.078125 56.195312 111.367188 C 59.527344 109.941406 63.152344 109.402344 66.707031 108.703125 C 70.261719 108.003906 73.871094 107.101562 76.871094 105.066406 C 78.371094 104.050781 79.695312 102.757812 80.632812 101.207031 C 81.570312 99.65625 82.109375 97.847656 82.039062 96.039062 C 81.972656 94.347656 81.382812 92.703125 80.476562 91.273438 C 79.574219 89.84375 78.367188 88.625 77.035156 87.582031 C 74.367188 85.5 71.234375 84.125 68.304688 82.433594 C 65.375 80.738281 62.535156 78.597656 61.035156 75.566406 C 60.289062 74.050781 59.90625 72.332031 60.089844 70.652344 C 60.273438 68.972656 61.046875 67.335938 62.328125 66.230469 C 63.203125 65.472656 64.289062 64.980469 65.421875 64.753906 C 66.554688 64.527344 67.734375 64.5625 68.867188 64.789062 C 71.136719 65.242188 73.1875 66.445312 75.054688 67.808594 C 76.921875 69.171875 78.65625 70.714844 80.585938 71.992188 C 82.511719 73.269531 84.6875 74.289062 86.992188 74.433594 Z M 86.992188 74.433594 " fill-opacity="1" fill-rule="nonzero"/></g></g></g></g></g></g></g></svg>