<svg width="88" height="123" viewBox="0 0 88 123" fill="none" xmlns="http://www.w3.org/2000/svg">
<mask id="mask0_6_19" style="mask-type:luminance" maskUnits="userSpaceOnUse" x="0" y="0" width="286" height="205">
<path d="M0 0H285.079V204.318H0V0Z" fill="white"/>
</mask>
<g mask="url(#mask0_6_19)">
<mask id="mask1_6_19" style="mask-type:luminance" maskUnits="userSpaceOnUse" x="-44" y="-29" width="363" height="249">
<path d="M-43.4925 45.1201L208.382 -28.8918L318.929 145.927L67.0548 219.936L-43.4925 45.1201Z" fill="white"/>
</mask>
<g mask="url(#mask1_6_19)">
<mask id="mask2_6_19" style="mask-type:luminance" maskUnits="userSpaceOnUse" x="-44" y="-29" width="363" height="249">
<path d="M-43.4925 45.1201L208.382 -28.8918L318.929 145.927L67.0548 219.936L-43.4925 45.1201Z" fill="white"/>
</mask>
<g mask="url(#mask2_6_19)">
<mask id="mask3_6_19" style="mask-type:luminance" maskUnits="userSpaceOnUse" x="-44" y="-29" width="363" height="249">
<path d="M-43.4925 45.1201L208.382 -28.8918L318.929 145.927L67.0548 219.936L-43.4925 45.1201Z" fill="white"/>
</mask>
<g mask="url(#mask3_6_19)">
<path fill-rule="evenodd" clip-rule="evenodd" d="M100.936 2.96543C108.658 0.411456 116.636 -0.131262 124.863 1.33372C132.783 3.10022 139.574 6.07276 145.246 10.2442C150.746 14.4973 156.225 18.7575 161.689 23.0318C167.611 27.5155 173.736 31.8572 180.079 36.0606C192.11 43.7332 205.218 50.3557 219.393 55.9319C227.058 58.9399 234.926 61.689 242.997 64.1791C246.057 65.2291 249.111 66.2826 252.161 67.3326C254.502 68.2264 256.834 69.1381 259.144 70.071C264.275 72.2419 268.849 74.8739 272.861 77.9776C279.579 83.7276 283.206 90.3466 283.747 97.8383C283.981 103.216 283.237 108.522 281.515 113.758C278.684 121.537 274.812 129.103 269.895 136.456C264.545 144.193 257.354 151.071 248.315 157.087C243.278 160.187 237.611 162.592 231.325 164.312C227.084 165.472 222.677 166.345 218.118 166.934C214.085 167.434 210.026 167.817 205.941 168.076C200.316 168.445 194.691 168.8 189.061 169.14C182.723 169.555 176.535 170.442 170.499 171.793C170.343 171.864 170.192 171.939 170.036 172.01C164.161 173.209 159.311 175.461 155.497 178.757C154.3 179.828 153.16 180.92 152.078 182.038C149.154 185.56 146.094 189.033 142.899 192.449C140.463 194.758 137.7 196.868 134.604 198.78C129.915 201.306 124.634 203.019 118.748 203.927C109.559 205.002 101.29 203.601 93.9423 199.727C90.1488 197.642 87.1931 195.098 85.0648 192.105C83.3268 189.391 81.5575 186.692 79.757 184.003C78.9661 182.754 78.0867 181.523 77.124 180.31C74.2255 177.586 71.1085 174.982 67.7729 172.503C55.9241 164.557 44.3355 156.434 33.0122 148.127C29.3332 145.385 25.7063 142.607 22.1313 139.794C18.0933 136.506 14.3934 133.044 11.0266 129.419C7.05622 125.017 4.13694 120.271 2.26882 115.184C-1.19685 104.482 2.79959 95.2843 14.2529 87.5869C16.0898 86.3774 17.9736 85.2032 19.9041 84.0611C24.4105 81.5745 28.943 79.1056 33.491 76.6581C42.4726 71.6991 49.1697 65.6157 53.5981 58.4078C54.9718 56.1518 56.252 53.8675 57.4436 51.5547C59.473 47.0391 61.6066 42.5413 63.8389 38.0612C67.7625 30.9278 72.6488 24.1456 78.503 17.7181C82.1195 13.9972 86.3085 10.5848 91.0751 7.48808C94.062 5.66128 97.3507 4.15373 100.936 2.96543ZM105.234 7.30717C113.441 5.29592 121.34 5.73577 128.937 8.62318C133.287 10.2442 137.175 12.2981 140.588 14.7811C146.619 19.4775 152.754 24.1456 158.994 28.7783C166.284 34.1877 173.949 39.324 181.994 44.1872C191.553 49.7563 201.706 54.7294 212.446 59.1102C216.208 60.5965 219.997 62.0579 223.811 63.4839C231.976 66.2719 240.119 69.1026 248.232 71.9794C251.973 73.3592 255.559 74.9022 258.983 76.6155C269.801 82.3726 275.577 89.9316 276.311 99.2926C276.597 105.38 275.551 111.342 273.173 117.185C270.462 123.616 266.981 129.848 262.729 135.882C257.864 142.508 251.489 148.41 243.601 153.6C240.593 155.459 237.273 157.002 233.636 158.236C227.36 160.467 220.725 161.932 213.721 162.624C204.667 163.369 195.591 164.007 186.506 164.532C178.122 165.114 170.083 166.568 162.397 168.895C157.625 170.524 153.582 172.755 150.267 175.585C148.81 176.841 147.436 178.139 146.156 179.473C143.232 182.999 140.172 186.468 136.977 189.884C134.552 192.236 131.68 194.3 128.349 196.07C125.138 197.532 121.662 198.578 117.921 199.217C111.734 200.047 105.978 199.344 100.645 197.11C97.5121 195.804 94.9518 194.095 92.9796 191.973C92.2095 191.129 91.4862 190.274 90.8149 189.402C89.488 187.295 88.2339 185.251 87.063 183.276C85.5019 180.988 83.8159 178.735 82.0154 176.518C80.4127 175.319 78.9297 174.049 77.5715 172.709C73.0079 169.25 68.2152 165.951 63.1937 162.808C53.3951 156.012 43.711 149.141 34.1519 142.192C29.5622 138.762 25.1963 135.197 21.0646 131.501C16.0066 126.946 12.2079 121.945 9.66847 116.5C7.75872 112.169 7.37884 107.788 8.52366 103.358C10.1992 98.8315 13.4724 94.9083 18.3326 91.5846C21.127 89.655 24.0775 87.8423 27.1893 86.1397C31.4355 83.8872 35.6401 81.5958 39.8031 79.2688C47.7543 74.6291 53.9311 69.1026 58.3386 62.6964C60.4305 59.2663 62.3923 55.7794 64.2084 52.2428C65.7279 48.834 67.2734 45.4287 68.8553 42.0305C72.4198 34.9894 77.0043 28.2958 82.6087 21.9499C85.913 18.4205 89.7429 15.1606 94.0932 12.1633C97.4236 10.0917 101.134 8.47065 105.234 7.30717Z" fill="#DAB7A0" fill-opacity="0.9804"/>
</g>
</g>
</g>
</g>
</svg>
