<svg width="530" height="326" viewBox="0 0 530 326" fill="none" xmlns="http://www.w3.org/2000/svg">
<mask id="mask0_6_62" style="mask-type:luminance" maskUnits="userSpaceOnUse" x="-267" y="0" width="797" height="425">
<path d="M-267 0.848022H530V424.344H-267V0.848022Z" fill="white"/>
</mask>
<g mask="url(#mask0_6_62)">
<mask id="mask1_6_62" style="mask-type:luminance" maskUnits="userSpaceOnUse" x="-456" y="-120" width="955" height="665">
<path d="M-81.2259 -119.983L498.499 228.559L124.124 544.692L-455.611 196.15L-81.2259 -119.983Z" fill="white"/>
</mask>
<g mask="url(#mask1_6_62)">
<mask id="mask2_6_62" style="mask-type:luminance" maskUnits="userSpaceOnUse" x="-456" y="-120" width="955" height="665">
<path d="M-81.2259 -119.983L498.499 228.559L124.124 544.692L-455.611 196.15L-81.2259 -119.983Z" fill="white"/>
</mask>
<g mask="url(#mask2_6_62)">
<mask id="mask3_6_62" style="mask-type:luminance" maskUnits="userSpaceOnUse" x="-456" y="-120" width="955" height="665">
<path d="M-81.2259 -119.983L498.499 228.559L124.124 544.692L-455.611 196.15L-81.2259 -119.983Z" fill="white"/>
</mask>
<g mask="url(#mask3_6_62)">
<path d="M321.802 151.146C374.073 155.522 416.772 179.494 420.572 223.032C423.484 250.546 411.675 282.511 394.874 307.115C383.624 323.56 370.031 337.042 355.742 343.238C335.827 351.833 315.047 346.885 292.252 348.569C262.565 350.569 230.873 362.157 203.37 379.459C179.16 394.716 158.148 414.327 133.548 429.17C108.758 444.149 78.9973 453.774 46.7563 449.984C15.6657 446.24 -14.7389 432.013 -36.2153 416.259C-57.5333 400.363 -70.1975 382.174 -80.0439 364.089C-90.8191 344.351 -101.066 323.116 -134.373 312.265C-151.291 306.724 -172.303 304.498 -192.618 302.407C-244.267 297.091 -296.454 291.91 -328.452 268.277C-377.853 235.484 -388.354 169.96 -346.52 122.835C-340.515 116.045 -327.428 87.8548 -300.886 94.2539C-294.048 95.6826 -286.914 95.7427 -280.033 98.6828C-262.64 106.052 -243.37 112.97 -222.263 119.241C-194.592 127.753 -160.451 134.152 -128.094 125.595C-78.081 112.301 -56.9634 73.44 -15.6359 50.3929C19.7816 30.6618 76.8021 23.3153 120.821 34.7223C150.74 42.6854 169.04 58.4613 175.446 75.4026C180.564 88.8173 179.055 102.924 176.543 117.038C174.76 127.001 160.46 149.364 175.414 156.477C190.284 163.531 226.873 154.259 244.518 152.552C270.374 150.011 298.088 148.003 321.802 151.146Z" fill="#9885B2" fill-opacity="0.5"/>
</g>
</g>
</g>
</g>
</svg>
