<svg width="999" height="1559" viewBox="0 0 999 1559" fill="none" xmlns="http://www.w3.org/2000/svg">
<mask id="mask0_6_139" style="mask-type:luminance" maskUnits="userSpaceOnUse" x="0" y="0" width="1721" height="1737">
<path d="M1720.64 0.537811H0V1736.69H1720.64V0.537811Z" fill="black" fill-opacity="0.2471"/>
</mask>
<g mask="url(#mask0_6_139)">
<mask id="mask1_6_139" style="mask-type:luminance" maskUnits="userSpaceOnUse" x="577" y="347" width="870" height="786">
<path d="M1446.92 347.239H577.047V1132.8H1446.92V347.239Z" fill="white"/>
</mask>
<g mask="url(#mask1_6_139)">
<mask id="mask2_6_139" style="mask-type:luminance" maskUnits="userSpaceOnUse" x="711" y="501" width="639" height="532">
<path d="M711.093 501.112H1349.95V1032.92H711.093V501.112Z" fill="white"/>
</mask>
<g mask="url(#mask2_6_139)">
<mask id="mask3_6_139" style="mask-type:luminance" maskUnits="userSpaceOnUse" x="580" y="348" width="864" height="780">
<path d="M856.803 348.262L1443.71 657.326L1167.1 1127.92L580.2 818.855L856.803 348.262Z" fill="white"/>
</mask>
<g mask="url(#mask3_6_139)">
<mask id="mask4_6_139" style="mask-type:luminance" maskUnits="userSpaceOnUse" x="580" y="348" width="864" height="780">
<path d="M856.803 348.262L1443.71 657.326L1167.1 1127.92L580.2 818.855L856.803 348.262Z" fill="white"/>
</mask>
<g mask="url(#mask4_6_139)">
<mask id="mask5_6_139" style="mask-type:luminance" maskUnits="userSpaceOnUse" x="580" y="348" width="864" height="780">
<path d="M856.803 348.262L1443.71 657.326L1167.1 1127.92L580.2 818.855L856.803 348.262Z" fill="white"/>
</mask>
<g mask="url(#mask5_6_139)">
<path d="M825.575 546.751C832.728 547.173 839.835 544.758 845.851 541.078C851.879 537.398 856.948 532.494 861.805 527.506C866.662 522.508 871.375 517.352 876.867 512.997C882.36 508.631 888.743 505.056 895.795 503.791C902.012 502.683 908.518 503.432 914.49 505.425C920.461 507.418 925.931 510.613 930.878 514.367C943.556 523.984 952.781 537.092 964.79 547.458C970.795 552.635 977.558 557.159 985.189 559.827C992.809 562.484 1001.35 563.191 1009.1 560.829C1017.92 558.129 1024.94 551.792 1031.08 545.201C1037.21 538.621 1042.9 531.493 1050.44 526.389C1061.75 518.733 1076.23 516.35 1090.11 516.877C1104.01 517.415 1117.59 520.631 1131.21 523.246C1168.63 530.406 1208.02 533.391 1241.36 551.011C1258.03 559.816 1272.84 572.397 1281.72 588.393C1286.17 596.397 1289.08 605.181 1289.92 614.176C1290.77 623.182 1289.53 632.377 1286.02 640.781C1282.12 650.135 1275.58 658.244 1270.44 667.028C1267.86 671.425 1265.62 676.023 1264.31 680.894C1263 685.766 1262.63 690.912 1263.78 695.816C1264.81 700.266 1267.08 704.42 1270.03 708.027C1272.98 711.623 1276.59 714.712 1280.46 717.412C1288.22 722.821 1297 726.734 1305.12 731.648C1326.07 744.333 1342.61 764.527 1346.96 787.705C1349.14 799.294 1348.23 811.452 1343.93 822.493C1339.63 833.544 1331.89 843.425 1321.71 850.184C1310.28 857.756 1296.44 861.151 1283.06 864.895C1269.68 868.649 1255.98 873.151 1245.93 882.304C1238.35 889.201 1233.38 898.291 1229.71 907.623C1226.04 916.945 1223.52 926.646 1220.05 936.031C1216.56 945.427 1211.99 954.654 1204.85 961.962C1201.29 965.61 1197.09 968.742 1192.36 970.946C1187.65 973.15 1182.41 974.405 1177.16 974.331C1171.12 974.247 1165.22 972.433 1159.82 969.891C1154.41 967.35 1149.43 964.092 1144.41 960.907C1139.4 957.722 1134.32 954.58 1128.77 952.323C1123.22 950.056 1117.16 948.696 1111.15 949.234C1104.09 949.866 1097.48 953.093 1092.16 957.533C1086.85 961.983 1082.76 967.593 1079.36 973.487C1072.55 985.256 1068.23 998.416 1059.51 1008.99C1050.24 1020.23 1036.37 1027.78 1021.61 1030.55C1006.84 1033.32 991.272 1031.43 977.335 1026.03C963.398 1020.63 951.076 1011.82 941.072 1001.17C931.067 990.517 923.324 978.074 917.464 964.946C904.931 936.854 900.831 905.672 886.192 878.498C878.873 864.916 868.768 852.378 855.366 843.921C841.952 835.474 824.985 831.456 809.343 835.094C794.492 838.553 782.315 848.286 768.869 855.193C762.151 858.641 754.931 861.446 747.333 862.269C739.735 863.102 731.692 861.805 725.42 857.661C720.919 854.687 717.498 850.364 715.426 845.566C713.354 840.768 712.597 835.495 712.886 830.317C713.454 819.952 718.078 810.166 723.615 801.213C729.163 792.26 735.702 783.856 740.682 774.619C745.673 765.381 749.094 754.994 747.768 744.702C746.843 737.532 743.668 730.772 739.735 724.582C735.803 718.393 731.09 712.677 726.756 706.74C722.423 700.793 718.412 694.54 716.084 687.654C713.766 680.778 713.232 673.175 715.805 666.374C717.543 661.766 720.662 657.674 724.484 654.374C728.316 651.084 732.828 648.553 737.585 646.623C747.1 642.774 757.472 641.308 767.621 639.421C777.781 637.544 788.086 635.087 796.654 629.593C800.932 626.851 804.72 623.34 807.405 619.153C810.089 614.967 811.627 610.074 811.426 605.181C811.237 600.605 809.544 596.155 806.959 592.295C804.374 588.425 800.921 585.125 797.122 582.309C789.512 576.678 780.544 572.956 772.177 568.39C763.811 563.813 755.7 558.024 751.422 549.82C749.283 545.718 748.191 541.078 748.715 536.533C749.239 531.988 751.444 527.559 755.11 524.575C757.605 522.529 760.714 521.201 763.944 520.578C767.186 519.967 770.551 520.062 773.793 520.673C780.277 521.907 786.126 525.155 791.462 528.835C796.799 532.526 801.756 536.702 807.271 540.15C812.774 543.609 818.98 546.361 825.575 546.751Z" fill="#FFAAAA"/>
</g>
</g>
</g>
</g>
</g>
</g>
</svg>
