<svg width="547" height="70" viewBox="0 0 547 70" fill="none" xmlns="http://www.w3.org/2000/svg">
<mask id="mask0_6_184" style="mask-type:luminance" maskUnits="userSpaceOnUse" x="0" y="0" width="547" height="70">
<path d="M0 0H547V69.402H0V0Z" fill="white"/>
</mask>
<g mask="url(#mask0_6_184)">
<path d="M185.664 5.01388C188.545 5.13662 191.408 5.19799 194.262 4.87887C195.252 4.76227 196.27 4.79295 197.287 4.78068C219.101 4.38178 240.923 4.19767 262.746 4.14858C273.189 4.11789 283.624 3.68831 294.04 2.99484C301.647 2.49162 309.291 2.30138 316.898 1.85338C332.158 0.951259 347.453 0.699646 362.74 1.12309C371.932 1.3747 381.088 2.19091 390.208 3.06235C402.649 4.25904 414.956 6.04488 427.614 6.22284C439.849 6.39468 451.814 5.4496 463.706 3.59626C476.436 1.62018 489.292 0.104369 502.427 0.613731C514.167 1.06786 525.285 3.08076 535.197 7.55455C540.68 10.0338 544.191 13.4951 545.56 17.9566C547.027 22.7372 545.064 26.7875 540.122 30.1874C535.269 33.5197 529.796 36.355 524.34 39.2086C512.555 45.3823 498.943 48.2298 484.476 49.5677C473.987 50.5373 463.436 50.9116 452.876 50.8994C435.212 50.8871 417.594 51.243 399.994 52.2065C384.833 53.035 369.897 54.557 355.223 57.3001C344.717 59.264 334.192 61.1909 323.497 62.6638C312.604 64.1673 301.647 65.407 290.592 66.2232C281.112 66.9228 271.641 67.7267 262.143 68.365C251.385 69.0891 240.581 69.2487 229.796 68.7945C216.742 68.2484 204.489 65.5359 192.497 62.0869C178.687 58.1225 164.409 55.14 149.752 53.035C144.144 52.2249 138.445 51.7769 132.692 51.7954C125.49 51.8076 118.279 51.7217 111.094 51.9304C101.551 52.1943 92.0354 52.7159 82.5105 53.1025C80.3768 53.1884 78.2342 53.1577 76.1005 53.2191C66.8997 53.5075 57.6898 53.8635 48.489 54.109C40.1614 54.3299 31.8519 54.1887 23.5513 53.6364C20.7514 53.4462 17.9966 53.078 15.2867 52.5379C5.28464 50.5618 9.05991e-06 44.4556 2.13367 37.0546C3.24101 33.2558 5.94185 30.0033 9.80404 27.1987C18.4107 20.9636 28.7819 16.6126 40.6746 14.0228C53.7736 11.1753 67.2598 9.64109 80.962 8.78193C92.6116 8.05164 104.297 7.89208 115.956 7.4134C121.664 7.17406 127.353 6.65856 133.052 6.29035C136.743 6.05715 140.434 5.84849 144.135 5.67666C154.56 5.19185 172.88 4.91569 185.124 4.91569" fill="#CCE1F2"/>
</g>
</svg>
