<svg width="151" height="537" viewBox="0 0 151 537" fill="none" xmlns="http://www.w3.org/2000/svg">
<g clip-path="url(#clip0_5_3)">
<mask id="mask0_5_3" style="mask-type:luminance" maskUnits="userSpaceOnUse" x="-267" y="-54" width="456" height="645">
<path d="M189 -53.581H-267V590.581H189V-53.581Z" fill="black" fill-opacity="0.298"/>
</mask>
<g mask="url(#mask0_5_3)">
<mask id="mask1_5_3" style="mask-type:luminance" maskUnits="userSpaceOnUse" x="-226" y="104" width="373" height="316">
<path d="M146.852 104.623H-225.171V419.471H146.852V104.623Z" fill="white"/>
</mask>
<g mask="url(#mask1_5_3)">
<mask id="mask2_5_3" style="mask-type:luminance" maskUnits="userSpaceOnUse" x="-225" y="104" width="372" height="315">
<path d="M-224.533 104.89H146.214V418.833H-224.533V104.89Z" fill="white"/>
</mask>
<g mask="url(#mask2_5_3)">
<path d="M-183.412 214.421C-179.835 212.715 -177.09 209.578 -175.226 206.085C-173.361 202.592 -172.3 198.736 -171.372 194.889C-170.443 191.043 -169.632 187.149 -168.217 183.455C-166.801 179.758 -164.732 176.22 -161.686 173.688C-158.994 171.45 -155.639 170.088 -152.186 169.5C-148.734 168.913 -145.185 169.075 -141.732 169.66C-132.871 171.158 -124.692 175.358 -115.946 177.42C-111.571 178.45 -107.015 178.941 -102.575 178.251C-98.1357 177.562 -93.806 175.622 -90.74 172.346C-87.2378 168.604 -85.6475 163.488 -84.5557 158.486C-83.4639 153.485 -82.7361 148.326 -80.5401 143.698C-77.2523 136.767 -70.9309 131.663 -64.0686 128.21C-57.2088 124.757 -49.7284 122.75 -42.4075 120.422C-22.2892 114.032 -2.41034 104.982 18.7024 105.014C29.2588 105.032 39.9922 107.464 48.8261 113.232C53.2431 116.118 57.1441 119.815 60.1104 124.174C63.0766 128.531 65.0932 133.553 65.7862 138.776C66.5564 144.584 65.6964 150.472 65.7064 156.333C65.7139 159.261 65.9382 162.208 66.686 165.041C67.4313 167.875 68.715 170.601 70.6643 172.792C72.4316 174.781 74.7049 176.285 77.1502 177.333C79.598 178.378 82.2202 178.978 84.8599 179.317C90.1419 179.992 95.5011 179.628 100.815 179.954C114.545 180.796 128.269 186.651 136.956 197.294C141.301 202.615 144.317 209.048 145.377 215.832C146.436 222.614 145.501 229.729 142.498 235.906C139.127 242.832 133.404 248.274 128.003 253.774C122.604 259.273 117.264 265.246 115.006 272.608C113.304 278.157 113.486 284.122 114.36 289.861C115.233 295.597 116.776 301.216 117.76 306.935C118.745 312.656 119.161 318.584 117.783 324.223C117.095 327.041 115.953 329.765 114.301 332.152C112.648 334.54 110.472 336.584 107.912 337.958C104.971 339.536 101.611 340.194 98.2754 340.35C94.9402 340.507 91.6051 340.184 88.2798 339.905C84.9522 339.626 81.6021 339.392 78.2818 339.728C74.9616 340.062 71.6439 340.998 68.892 342.882C65.659 345.096 63.3783 348.519 62.0746 352.208C60.7709 355.898 60.3896 359.857 60.417 363.77C60.4718 371.595 62.1195 379.462 60.9105 387.195C59.6243 395.406 55.0677 402.974 48.7165 408.347C42.3677 413.722 34.3089 416.941 26.0433 417.929C17.7776 418.918 9.3176 417.73 1.45825 414.989C-6.40108 412.246 -13.6746 407.978 -20.2353 402.862C-34.2739 391.91 -45.1095 377.122 -59.8984 367.206C-67.2941 362.249 -75.7367 358.567 -84.6156 357.857C-93.4969 357.148 -102.837 359.655 -109.36 365.71C-115.554 371.458 -118.678 379.681 -123.212 386.809C-125.478 390.372 -128.17 393.738 -131.607 396.198C-135.044 398.657 -139.297 400.156 -143.504 399.728C-146.518 399.422 -149.4 398.137 -151.765 396.245C-154.131 394.355 -155.993 391.873 -157.326 389.157C-159.993 383.725 -160.539 377.496 -160.405 371.448C-160.27 365.398 -159.497 359.364 -159.712 353.316C-159.926 347.272 -161.222 341.06 -164.787 336.168C-167.272 332.762 -170.727 330.17 -174.383 328.074C-178.043 325.975 -181.941 324.327 -185.723 322.462C-189.506 320.598 -193.22 318.487 -196.296 315.604C-199.372 312.721 -201.79 308.991 -202.478 304.836C-202.944 302.018 -202.6 299.097 -201.69 296.389C-200.778 293.682 -199.312 291.18 -197.563 288.922C-194.058 284.406 -189.464 280.883 -185.094 277.196C-180.722 273.509 -176.437 269.496 -173.86 264.395C-172.569 261.845 -171.734 259.044 -171.629 256.191C-171.524 253.336 -172.17 250.43 -173.658 247.991C-175.047 245.713 -177.128 243.898 -179.473 242.62C-181.819 241.346 -184.424 240.589 -187.064 240.176C-192.341 239.347 -197.725 239.857 -203.069 239.772C-208.411 239.685 -213.977 238.913 -218.374 235.884C-220.57 234.367 -222.417 232.293 -223.454 229.836C-224.491 227.379 -224.68 224.533 -223.763 222.029C-223.135 220.316 -222.013 218.802 -220.622 217.62C-219.231 216.44 -217.579 215.583 -215.839 215.028C-212.359 213.915 -208.608 214 -204.983 214.445C-201.356 214.891 -197.775 215.688 -194.133 215.972C-190.491 216.253 -186.71 215.991 -183.412 214.421Z" fill="#FFAAAA"/>
</g>
</g>
</g>
</g>
<defs>
<clipPath id="clip0_5_3">
<rect width="380" height="537" fill="white" transform="translate(-229)"/>
</clipPath>
</defs>
</svg>
