<svg width="299" height="326" viewBox="0 0 299 326" fill="none" xmlns="http://www.w3.org/2000/svg">
<mask id="mask0_6_45" style="mask-type:luminance" maskUnits="userSpaceOnUse" x="0" y="0" width="625" height="548">
<path d="M0 0.631348H624.131V547.786H0V0.631348Z" fill="white"/>
</mask>
<g mask="url(#mask0_6_45)">
<mask id="mask1_6_45" style="mask-type:luminance" maskUnits="userSpaceOnUse" x="-96" y="-77" width="795" height="667">
<path d="M-95.2191 121.461L456.216 -76.7397L698.24 391.419L146.805 589.611L-95.2191 121.461Z" fill="white"/>
</mask>
<g mask="url(#mask1_6_45)">
<mask id="mask2_6_45" style="mask-type:luminance" maskUnits="userSpaceOnUse" x="-96" y="-77" width="795" height="667">
<path d="M-95.2191 121.461L456.216 -76.7397L698.24 391.419L146.805 589.611L-95.2191 121.461Z" fill="white"/>
</mask>
<g mask="url(#mask2_6_45)">
<mask id="mask3_6_45" style="mask-type:luminance" maskUnits="userSpaceOnUse" x="-96" y="-77" width="795" height="667">
<path d="M-95.2191 121.461L456.216 -76.7397L698.24 391.419L146.805 589.611L-95.2191 121.461Z" fill="white"/>
</mask>
<g mask="url(#mask3_6_45)">
<path fill-rule="evenodd" clip-rule="evenodd" d="M220.982 8.5727C237.889 1.73326 255.354 0.279886 273.365 4.20306C290.705 8.93367 305.572 16.894 317.99 28.0651C330.032 39.4546 342.028 50.8632 353.991 62.3097C366.955 74.3167 380.364 85.9438 394.252 97.2003C420.592 117.747 449.289 135.482 480.323 150.415C497.104 158.47 514.33 165.832 532 172.501C538.698 175.312 545.386 178.134 552.062 180.945C557.189 183.339 562.292 185.78 567.351 188.279C578.584 194.092 588.598 201.141 597.382 209.453C612.089 224.851 620.03 242.576 621.215 262.639C621.728 277.039 620.098 291.25 616.328 305.271C610.13 326.103 601.654 346.365 590.888 366.056C579.176 386.774 563.432 405.193 543.643 421.304C532.615 429.606 520.208 436.047 506.446 440.654C497.161 443.76 487.512 446.097 477.532 447.674C468.702 449.013 459.816 450.039 450.873 450.732C438.558 451.72 426.242 452.67 413.915 453.582C400.039 454.694 386.494 457.068 373.278 460.688C372.936 460.878 372.606 461.077 372.264 461.267C359.402 464.478 348.784 470.51 340.433 479.335C337.813 482.203 335.318 485.129 332.948 488.121C326.546 497.554 319.847 506.854 312.852 516.002C307.52 522.185 301.471 527.838 294.692 532.958C284.427 539.721 272.864 544.309 259.979 546.741C239.86 549.619 221.757 545.867 205.671 535.494C197.365 529.908 190.894 523.097 186.235 515.08C182.43 507.813 178.556 500.584 174.614 493.384C172.883 490.04 170.957 486.744 168.85 483.495C162.504 476.2 155.68 469.227 148.377 462.587C122.436 441.309 97.065 419.556 72.2748 397.309C64.2202 389.966 56.2796 382.528 48.4529 374.995C39.6122 366.189 31.5121 356.918 24.1411 347.21C15.4486 335.422 9.05733 322.712 4.9674 309.09C-2.62006 280.431 6.12944 255.799 31.2045 235.186C35.2261 231.947 39.3502 228.802 43.5769 225.744C53.4428 219.085 63.3658 212.473 73.3229 205.919C92.9865 192.639 107.649 176.348 117.344 157.045C120.351 151.004 123.154 144.886 125.763 138.693C130.206 126.6 134.877 114.555 139.764 102.558C148.354 83.455 159.052 65.2925 171.869 48.0799C179.787 38.1152 188.958 28.977 199.393 20.6842C205.933 15.7921 213.133 11.7549 220.982 8.5727ZM230.392 20.1997C248.359 14.8137 265.652 15.9916 282.286 23.7239C291.81 28.0651 300.32 33.5651 307.794 40.2146C320.998 52.7915 334.429 65.2925 348.089 77.6984C364.05 92.1848 380.831 105.94 398.444 118.963C419.373 133.877 441.599 147.195 465.114 158.926C473.351 162.906 481.644 166.82 489.995 170.639C507.87 178.105 525.7 185.685 543.461 193.389C551.652 197.085 559.501 201.217 566.998 205.805C590.683 221.222 603.329 241.465 604.935 266.533C605.562 282.834 603.272 298.802 598.065 314.447C592.13 331.669 584.508 348.359 575.2 364.518C564.548 382.262 550.592 398.069 533.321 411.966C526.736 416.944 519.468 421.076 511.504 424.382C497.765 430.357 483.239 434.28 467.905 436.132C448.082 438.127 428.213 439.837 408.322 441.243C389.968 442.801 372.367 446.695 355.54 452.927C345.093 457.287 336.241 463.262 328.984 470.842C325.794 474.205 322.786 477.682 319.984 481.253C313.581 490.696 306.882 499.986 299.887 509.134C294.578 515.432 288.29 520.96 280.998 525.7C273.969 529.614 266.359 532.416 258.168 534.126C244.622 536.349 232.022 534.468 220.344 528.483C213.486 524.988 207.881 520.409 203.563 514.729C201.877 512.468 200.293 510.178 198.824 507.842C195.918 502.199 193.173 496.728 190.61 491.437C187.192 485.31 183.501 479.278 179.559 473.341C176.05 470.13 172.803 466.729 169.829 463.138C159.838 453.877 149.346 445.042 138.352 436.626C116.9 418.426 95.6979 400.026 74.7698 381.417C64.7215 372.231 55.1631 362.684 46.1174 352.786C35.0438 340.589 26.7272 327.195 21.1676 312.614C16.9866 301.015 16.1549 289.284 18.6613 277.419C22.3297 265.298 29.4956 254.792 40.1363 245.891C46.2541 240.724 52.7137 235.87 59.5265 231.31C68.8228 225.278 78.028 219.142 87.1421 212.91C104.55 200.485 118.073 185.685 127.722 168.53C132.302 159.344 136.597 150.006 140.573 140.536C143.9 131.407 147.284 122.288 150.747 113.188C158.551 94.3316 168.588 76.4066 180.857 59.4125C188.092 49.9608 196.477 41.231 206.001 33.2042C213.292 27.6566 221.415 23.3155 230.392 20.1997Z" fill="#DAB7A0" fill-opacity="0.9804"/>
</g>
</g>
</g>
</g>
</svg>
