<svg width="532" height="273" viewBox="0 0 532 273" fill="none" xmlns="http://www.w3.org/2000/svg">
<mask id="mask0_6_166" style="mask-type:luminance" maskUnits="userSpaceOnUse" x="0" y="-201" width="892" height="474">
<path d="M0 -200.687H891.099V272.809H0V-200.687Z" fill="white"/>
</mask>
<g mask="url(#mask0_6_166)">
<mask id="mask1_6_166" style="mask-type:luminance" maskUnits="userSpaceOnUse" x="-92" y="-367" width="1067" height="744">
<path d="M326.811 -366.403L974.982 23.2904L556.406 376.748L-91.7767 -12.9449L326.811 -366.403Z" fill="white"/>
</mask>
<g mask="url(#mask1_6_166)">
<mask id="mask2_6_166" style="mask-type:luminance" maskUnits="userSpaceOnUse" x="-92" y="-367" width="1067" height="744">
<path d="M326.811 -366.403L974.982 23.2904L556.406 376.748L-91.7767 -12.9449L326.811 -366.403Z" fill="white"/>
</mask>
<g mask="url(#mask2_6_166)">
<mask id="mask3_6_166" style="mask-type:luminance" maskUnits="userSpaceOnUse" x="-92" y="-367" width="1067" height="744">
<path d="M326.811 -366.403L974.982 23.2904L556.406 376.748L-91.7767 -12.9449L326.811 -366.403Z" fill="white"/>
</mask>
<g mask="url(#mask3_6_166)">
<path d="M777.423 -63.2622C835.866 -58.3692 883.607 -31.5669 887.855 17.1111C891.111 47.8733 877.908 83.6125 859.123 111.121C846.544 129.508 831.347 144.582 815.37 151.509C793.104 161.119 769.871 155.587 744.384 157.47C711.192 159.707 675.758 172.662 645.009 192.007C617.941 209.066 594.448 230.992 566.943 247.588C539.226 264.335 505.951 275.096 469.904 270.859C435.143 266.672 401.148 250.766 377.136 233.152C353.301 215.379 339.142 195.042 328.133 174.823C316.085 152.754 304.628 129.012 267.389 116.88C248.474 110.684 224.981 108.195 202.267 105.858C144.52 99.9142 86.1718 94.1216 50.3957 67.6976C-4.83783 31.0335 -16.5783 -42.2273 30.1949 -94.9156C36.9089 -102.507 51.5403 -134.026 81.216 -126.872C88.8621 -125.274 96.8386 -125.207 104.532 -121.92C123.977 -113.681 145.523 -105.946 169.122 -98.9342C200.061 -89.4172 238.232 -82.2626 274.41 -91.8301C330.327 -106.694 353.938 -150.143 400.145 -175.911C439.744 -197.972 503.497 -206.186 552.713 -193.432C586.165 -184.528 606.625 -166.89 613.787 -147.949C619.51 -132.95 617.823 -117.178 615.014 -101.398C613.02 -90.2579 597.032 -65.2548 613.752 -57.3015C630.377 -49.4155 671.286 -59.7816 691.015 -61.6901C719.924 -64.5317 750.909 -66.7765 777.423 -63.2622Z" fill="#9885B2"/>
</g>
</g>
</g>
</g>
</svg>
