<svg width="446" height="322" viewBox="0 0 446 322" fill="none" xmlns="http://www.w3.org/2000/svg">
<mask id="mask0_6_79" style="mask-type:luminance" maskUnits="userSpaceOnUse" x="-250" y="-200" width="696" height="522">
<path d="M-250 -199.642H446V321.754H-250V-199.642Z" fill="white"/>
</mask>
<g mask="url(#mask0_6_79)">
<mask id="mask1_6_79" style="mask-type:luminance" maskUnits="userSpaceOnUse" x="-357" y="-274" width="886" height="636">
<path d="M-356.184 -84.5003L258.749 -273.371L528.642 172.749L-86.2906 361.61L-356.184 -84.5003Z" fill="white"/>
</mask>
<g mask="url(#mask1_6_79)">
<mask id="mask2_6_79" style="mask-type:luminance" maskUnits="userSpaceOnUse" x="-357" y="-274" width="886" height="636">
<path d="M-356.184 -84.5003L258.749 -273.371L528.642 172.749L-86.2906 361.61L-356.184 -84.5003Z" fill="white"/>
</mask>
<g mask="url(#mask2_6_79)">
<mask id="mask3_6_79" style="mask-type:luminance" maskUnits="userSpaceOnUse" x="-357" y="-274" width="886" height="636">
<path d="M-356.184 -84.5003L258.749 -273.371L528.642 172.749L-86.2906 361.61L-356.184 -84.5003Z" fill="white"/>
</mask>
<g mask="url(#mask3_6_79)">
<path fill-rule="evenodd" clip-rule="evenodd" d="M-3.57192 -192.075C15.2815 -198.592 34.7574 -199.977 54.8431 -196.239C74.1792 -191.731 90.7585 -184.145 104.606 -173.5C118.035 -162.646 131.413 -151.775 144.752 -140.867C159.21 -129.426 174.163 -118.346 189.65 -107.619C219.023 -88.0397 251.025 -71.1396 285.632 -56.9098C304.346 -49.2337 323.555 -42.2184 343.259 -35.8639C350.729 -33.1845 358.187 -30.496 365.632 -27.8166C371.349 -25.5355 377.04 -23.2092 382.681 -20.8285C395.208 -15.2887 406.375 -8.57206 416.17 -0.651539C432.571 14.0218 441.426 30.9129 442.748 50.0307C443.319 63.7536 441.503 77.2954 437.298 90.6562C430.386 110.507 420.934 129.815 408.928 148.58C395.868 168.322 378.311 185.874 356.243 201.227C343.945 209.138 330.11 215.275 314.763 219.666C304.409 222.626 293.648 224.852 282.519 226.355C272.673 227.631 262.764 228.609 252.791 229.27C239.057 230.211 225.324 231.116 211.578 231.985C196.104 233.044 180.998 235.307 166.261 238.756C165.88 238.937 165.511 239.127 165.13 239.308C150.787 242.368 138.946 248.116 129.634 256.525C126.712 259.259 123.93 262.047 121.287 264.898C114.147 273.887 106.677 282.749 98.8767 291.466C92.931 297.359 86.1849 302.745 78.6258 307.624C67.1791 314.069 54.2841 318.441 39.9154 320.758C17.4793 323.501 -2.70802 319.926 -20.6467 310.041C-29.9082 304.718 -37.1243 298.228 -42.3205 290.588C-46.5637 283.663 -50.8833 276.775 -55.279 269.913C-57.2101 266.727 -59.3571 263.586 -61.7074 260.49C-68.7838 253.538 -76.3938 246.894 -84.5373 240.567C-113.465 220.29 -141.758 199.561 -169.403 178.361C-178.385 171.364 -187.24 164.276 -195.968 157.098C-205.827 148.707 -214.859 139.872 -223.079 130.621C-232.773 119.387 -239.9 107.276 -244.461 94.2951C-252.922 66.9851 -243.165 43.5133 -215.202 23.8704C-210.718 20.7836 -206.119 17.7874 -201.405 14.8727C-190.403 8.52721 -179.338 2.227 -168.234 -4.01889C-146.306 -16.6736 -129.956 -32.1978 -119.144 -50.5915C-115.79 -56.3486 -112.665 -62.1781 -109.756 -68.08C-104.801 -79.6032 -99.5921 -91.0812 -94.1419 -102.514C-84.5627 -120.718 -72.6333 -138.025 -58.3408 -154.427C-49.5112 -163.923 -39.2841 -172.631 -27.6468 -180.533C-20.3545 -185.195 -12.3253 -189.042 -3.57192 -192.075ZM6.92195 -180.995C26.9568 -186.127 46.2422 -185.005 64.7907 -177.637C75.4116 -173.5 84.9018 -168.259 93.2359 -161.922C107.96 -149.937 122.939 -138.025 138.172 -126.203C155.97 -112.399 174.684 -99.2914 194.325 -86.8811C217.663 -72.6694 242.45 -59.9785 268.671 -48.7992C277.857 -45.0064 287.106 -41.277 296.418 -37.6381C316.351 -30.5232 336.234 -23.2997 356.04 -15.9585C365.174 -12.4373 373.928 -8.49964 382.287 -4.12751C408.7 10.5639 422.802 29.8538 424.593 53.742C425.292 69.2753 422.738 84.4917 416.932 99.4004C410.313 115.812 401.814 131.716 391.434 147.114C379.556 164.023 363.993 179.085 344.733 192.328C337.39 197.072 329.284 201.009 320.404 204.159C305.082 209.853 288.884 213.592 271.784 215.357C249.678 217.258 227.522 218.887 205.34 220.227C184.873 221.711 165.245 225.423 146.48 231.361C134.83 235.516 124.959 241.209 116.866 248.433C113.309 251.637 109.955 254.95 106.83 258.354C99.6898 267.352 92.2196 276.204 84.419 284.922C78.4988 290.923 71.4859 296.191 63.3551 300.708C55.5164 304.438 47.0299 307.108 37.8954 308.737C22.7898 310.856 8.73868 309.063 -4.28337 303.36C-11.9314 300.029 -18.182 295.666 -22.997 290.253C-24.8773 288.099 -26.6432 285.917 -28.2821 283.69C-31.5217 278.314 -34.5835 273.1 -37.442 268.058C-41.2533 262.219 -45.3695 256.471 -49.7653 250.814C-53.6782 247.754 -57.299 244.513 -60.6149 241.092C-71.7566 232.266 -83.4574 223.848 -95.7172 215.827C-119.64 198.484 -143.283 180.95 -166.621 163.217C-177.826 154.464 -188.485 145.367 -198.572 135.934C-210.921 124.312 -220.195 111.548 -226.395 97.6534C-231.058 86.6009 -231.985 75.4216 -229.19 64.1157C-225.099 52.5653 -217.108 42.5537 -205.242 34.072C-198.42 29.1477 -191.216 24.5221 -183.619 20.1772C-173.252 14.4291 -162.987 8.58152 -152.824 2.6434C-133.411 -9.19664 -118.331 -23.2997 -107.57 -39.6476C-102.463 -48.4009 -97.6737 -57.2991 -93.2399 -66.3239C-89.5302 -75.0229 -85.7569 -83.7129 -81.8948 -92.3847C-73.1923 -110.353 -61.9996 -127.434 -48.317 -143.628C-40.2496 -152.635 -30.8992 -160.954 -20.2783 -168.603C-12.1474 -173.889 -3.08915 -178.026 6.92195 -180.995Z" fill="#DAB7A0" fill-opacity="0.9804"/>
</g>
</g>
</g>
</g>
</svg>
