<svg width="134" height="92" viewBox="0 0 134 92" fill="none" xmlns="http://www.w3.org/2000/svg">
<path d="M84.325 57.9007C110.099 59.9651 131.153 71.2736 133.026 91.8117C134.463 104.791 128.64 119.87 120.355 131.476C114.808 139.234 108.106 145.594 101.06 148.517C91.2407 152.571 80.9947 150.237 69.7547 151.032C55.1167 151.975 39.49 157.442 25.9292 165.604C13.9919 172.801 3.63133 182.052 -8.49848 189.054C-20.722 196.12 -35.3964 200.66 -51.2937 198.873C-66.6238 197.106 -81.6156 190.395 -92.2051 182.964C-102.717 175.465 -108.961 166.884 -113.816 158.353C-119.129 149.042 -124.182 139.025 -140.605 133.906C-148.946 131.292 -159.307 130.242 -169.324 129.256C-194.791 126.748 -220.523 124.304 -236.301 113.155C-260.659 97.6859 -265.837 66.7757 -245.209 44.5456C-242.248 41.3425 -235.796 28.0441 -222.709 31.0627C-219.337 31.7367 -215.819 31.7651 -212.426 33.152C-203.85 36.6282 -194.348 39.8917 -183.941 42.85C-170.297 46.8654 -153.463 49.8841 -137.509 45.8474C-112.848 39.576 -102.436 21.2441 -82.0579 10.372C-64.5943 1.06422 -36.4788 -2.40138 -14.7741 2.9797C-0.0216637 6.73616 9.00155 14.1781 12.1602 22.1699C14.684 28.4981 13.9399 35.1526 12.7014 41.8107C11.8219 46.5107 4.77094 57.06 12.1446 60.4156C19.4766 63.7429 37.5178 59.3692 46.2184 58.564C58.9674 57.3651 72.6323 56.418 84.325 57.9007Z" fill="#9885B2" fill-opacity="0.5"/>
</svg>
